<?xml version="1.0" encoding="UTF-8"?>
<!-- Generator: Adobe Illustrator 18.1.1, SVG Export Plug-In . SVG Version: 6.00 Build 0)  -->
<svg version="1.1" id="Layer_1" xmlns="http://www.w3.org/2000/svg" xmlns:xlink="http://www.w3.org/1999/xlink" x="0px" y="0px" viewBox="0 0 681.3 240" enable-background="new 0 0 681.3 240" xml:space="preserve">
<path fill="#E0E0E0" d="M681.3,201.3c0,21.4-17.3,38.7-38.7,38.7H38.7C17.3,240,0,222.7,0,201.3V38.7C0,17.3,17.3,0,38.7,0h603.9  c21.4,0,38.7,17.3,38.7,38.7V201.3z"/>
<path fill="#868686" d="M681.3,201.3c0,21.4-17.3,38.7-38.7,38.7H46.5c-21.4,0-38.7-17.3-38.7-38.7V46.5c0-21.4,17.3-38.7,38.7-38.7  h596.1c21.4,0,38.7,17.3,38.7,38.7V201.3z"/>
<g>
	<path fill="#F8F8F8" d="M673.5,201.3c0,17.1-13.9,31-31,31H38.7c-17.1,0-31-13.9-31-31V38.7c0-17.1,13.9-31,31-31h603.9   c17.1,0,31,13.9,31,31V201.3z"/>
	<linearGradient id="SVGID_1_" gradientUnits="userSpaceOnUse" x1="340.6452" y1="7.7419" x2="340.6452" y2="232.2581">
		<stop offset="0" style="stop-color:#FBFBFB"/>
		<stop offset="1" style="stop-color:#F2F2F2"/>
	</linearGradient>
	<path fill="url(#SVGID_1_)" d="M673.5,201.3c0,17.1-13.9,31-31,31H38.7c-17.1,0-31-13.9-31-31V38.7c0-17.1,13.9-31,31-31h603.9   c17.1,0,31,13.9,31,31V201.3z"/>
</g>
<g>
	<path fill="#2D5F9B" d="M202,63.9c-6.5,0-46,0-46,0c-15.7,0-16.1,12.2-16.1,14.9c0,2.8-0.2,56.6-0.2,78.2c0,20.6,18.8,19,18.8,19   c2.7,0,12.2,0,41.2,0c52.2,0,55.6-41.2,55.6-52.5c0-4,0-4.9,0-8.7C253.4,70,216.8,63.9,202,63.9z M190.5,145.3h-10.1l-0.1-50.7   h10.8c0,0,22.5-1.8,22.5,24.7S190.5,145.3,190.5,145.3z"/>
	<path fill="#2D5F9B" d="M85.2,119l41.9-16.6l-0.2,56.5c0,0,0.6,19.2-20.6,19.2c-21.2,0-21-17.9-21-17.9L85.2,119z"/>
	<path fill="#EB640F" d="M127,88.7l-41.9,16.6l0.2-24.1c0,0-0.6-19.2,20.6-19.2c21.2,0,21,17.9,21,17.9L127,88.7z"/>
</g>
<g>
	<path fill="#25538E" d="M276.8,119.8h24.4v8.6h-24.4V119.8z"/>
	<path fill="#25538E" d="M329.1,119.3h-4.5v40.1h-9.3V72.8h9.3v40.4l4.3-1.7l22.5-38.6h10.7l-22.7,37.4l-4.3,4l5.1,5l25.1,40.4   h-11.8L329.1,119.3z"/>
	<path fill="#25538E" d="M412.9,135.2h-24.5l-6.9,24.3h-9.2l26.1-88.1h5.1l26.1,88.1H420L412.9,135.2z M391,127.2h19.8l-7.5-26.9   l-2.3-13.1h-0.2l-2.4,13.3L391,127.2z"/>
	<path fill="#25538E" d="M476.1,135.2h-24.5l-6.9,24.3h-9.2l26.1-88.1h5.1l26.1,88.1h-9.8L476.1,135.2z M454.1,127.2h19.8l-7.5-26.9   l-2.3-13.1h-0.2l-2.4,13.3L454.1,127.2z"/>
	<path fill="#25538E" d="M502.4,73.6c2.7-0.7,5.7-1.1,9-1.4c3.3-0.3,6.3-0.4,9-0.4c3.2,0,6.3,0.4,9.2,1.2c2.9,0.8,5.4,2.1,7.6,4   c2.1,1.9,3.9,4.3,5.1,7.3c1.3,3,1.9,6.8,1.9,11.3c0,6.9-1.4,12.3-4.3,16.5c-2.8,4.1-6.6,6.9-11.3,8.3l4.7,4.6l17.1,34.6h-10.8   L521,121.7l-9.3-1.9v39.6h-9.3V73.6z M511.7,113.6h7.4c4.7,0,8.4-1.4,11.2-4.3c2.7-2.9,4.1-7.3,4.1-13.3c0-4.5-1.1-8.3-3.4-11.3   c-2.3-3-5.6-4.5-10.1-4.5c-1.7,0-3.4,0.1-5.1,0.2c-1.8,0.1-3.1,0.3-4,0.6V113.6z"/>
	<path fill="#25538E" d="M605.6,81.3h-21.3v78.2H575V81.3h-21.3v-8.6h51.9V81.3z"/>
</g>
</svg>